<?xml version="1.0" encoding="UTF-8" standalone="no"?>
<svg
   xmlns:dc="http://purl.org/dc/elements/1.1/"
   xmlns:cc="http://creativecommons.org/ns#"
   xmlns:rdf="http://www.w3.org/1999/02/22-rdf-syntax-ns#"
   xmlns:svg="http://www.w3.org/2000/svg"
   xmlns="http://www.w3.org/2000/svg"
   xmlns:sodipodi="http://sodipodi.sourceforge.net/DTD/sodipodi-0.dtd"
   xmlns:inkscape="http://www.inkscape.org/namespaces/inkscape"
   version="1.0"
   width="984.000000pt"
   height="422.000000pt"
   viewBox="0 0 984.000000 422.000000"
   preserveAspectRatio="xMidYMid meet"
   id="svg2"
   inkscape:version="0.91 r13725"
   sodipodi:docname="josephjoseph.svg">
  <defs
     id="defs38" />
  <sodipodi:namedview
     pagecolor="#ffffff"
     bordercolor="#666666"
     borderopacity="1"
     objecttolerance="10"
     gridtolerance="10"
     guidetolerance="10"
     inkscape:pageopacity="0"
     inkscape:pageshadow="2"
     inkscape:window-width="710"
     inkscape:window-height="480"
     id="namedview36"
     showgrid="false"
     inkscape:zoom="0.32764228"
     inkscape:cx="615"
     inkscape:cy="263.75"
     inkscape:window-x="20"
     inkscape:window-y="43"
     inkscape:window-maximized="0"
     inkscape:current-layer="svg2" />
  <metadata
     id="metadata4">
Created by potrace 1.13, written by Peter Selinger 2001-2015
<rdf:RDF>
  <cc:Work
     rdf:about="">
    <dc:format>image/svg+xml</dc:format>
    <dc:type
       rdf:resource="http://purl.org/dc/dcmitype/StillImage" />
    <dc:title></dc:title>
  </cc:Work>
</rdf:RDF>
</metadata>
  <g
     transform="translate(0.000000,422.000000) scale(0.100000,-0.100000)"
     fill="#000000"
     stroke="none"
     id="g6"
     style="fill:#878688;fill-opacity:1">
    <path
       d="M9385 4078 c-177 -62 -185 -311 -13 -383 105 -43 231 6 279 110 35 76 18 158 -45 221 -58 59 -144 79 -221 52z m140 -37 c71 -33 105 -86 105 -165 0 -85 -84 -166 -173 -166 -150 0 -233 180 -134 289 28 30 94 61 132 61 17 0 48 -9 70 -19z"
       id="path8"
       style="fill:#878688;fill-opacity:1" />
    <path
       d="M9370 3884 c0 -114 0 -115 23 -112 22 3 24 7 26 61 1 22 6 27 26 27 32 0 65 -33 65 -65 0 -18 5 -25 20 -25 16 0 20 7 20 33 0 18 -7 42 -15 54 -13 18 -13 22 0 33 8 7 15 27 15 46 0 48 -29 64 -112 64 l-68 0 0 -116z"
       id="path10"
       style="fill:#878688;fill-opacity:1" />
    <path
       d="M826 4063 c-3 -4 -6 -268 -6 -587 1 -566 0 -583 -20 -651 -65 -212 -239 -324 -532 -342 l-98 -6 0 -75 0 -75 113 8 c405 25 611 162 686 456 24 92 23 67 22 737 l-1 542 -78 0 c-43 0 -82 -3 -86 -7z"
       id="path12"
       style="fill:#878688;fill-opacity:1" />
    <path
       d="M7890 3215 l0 -855 85 0 85 0 0 453 c0 497 1 511 61 630 43 85 145 184 237 230 277 138 583 49 707 -207 53 -110 55 -133 55 -638 l0 -468 91 0 91 0 -5 503 c-3 429 -7 511 -21 567 -60 229 -225 395 -456 457 -90 24 -301 24 -389 0 -141 -38 -253 -116 -323 -224 l-43 -64 -3 235 -2 236 -85 0 -85 0 0 -855z"
       id="path14"
       style="fill:#878688;fill-opacity:1" />
    <path
       d="M1733 3885 c-376 -97 -631 -435 -610 -810 18 -334 265 -623 613 -716 112 -30 307 -31 419 -1 167 45 334 151 441 280 333 403 167 1013 -329 1212 -165 66 -364 79 -534 35z m367 -131 c243 -57 441 -257 496 -500 81 -366 -179 -720 -569 -775 -208 -29 -421 51 -575 216 -260 278 -217 713 93 943 156 116 367 161 555 116z"
       id="path16"
       style="fill:#878688;fill-opacity:1" />
    <path
       d="M3355 3903 c-72 -11 -155 -37 -221 -68 -233 -112 -312 -350 -173 -525 83 -106 193 -154 470 -209 254 -50 380 -96 461 -169 100 -90 103 -201 8 -305 -92 -101 -236 -157 -405 -157 -230 0 -399 99 -446 260 -7 25 -16 47 -21 50 -8 6 -177 4 -183 -1 -2 -2 1 -27 6 -54 32 -172 182 -308 404 -366 109 -29 326 -31 437 -6 202 47 349 144 424 279 26 48 29 62 29 148 0 81 -4 102 -24 140 -38 73 -79 118 -153 170 -85 59 -165 87 -398 136 -318 66 -433 115 -477 204 -30 58 -29 95 5 161 138 274 717 236 811 -53 l13 -38 89 0 89 0 0 38 c0 94 -107 230 -229 291 -114 58 -184 73 -341 76 -80 2 -158 1 -175 -2z"
       id="path18"
       style="fill:#878688;fill-opacity:1" />
    <path
       d="M4900 3896 c-244 -54 -452 -209 -559 -415 -69 -135 -86 -206 -85 -366 0 -123 3 -150 26 -217 69 -208 213 -373 413 -473 135 -67 223 -88 380 -88 157 0 245 21 380 88 162 81 295 213 370 370 58 121 60 115 -37 115 l-83 0 -33 -71 c-40 -84 -143 -198 -235 -258 -216 -140 -495 -142 -718 -5 -78 48 -196 173 -237 251 -27 51 -72 192 -72 225 0 4 336 8 747 8 l746 0 -6 103 c-21 361 -282 655 -649 732 -83 18 -270 18 -348 1z m386 -157 c201 -68 370 -242 428 -438 9 -30 16 -65 16 -78 l0 -23 -655 0 -655 0 0 24 c0 13 8 51 19 84 50 162 180 315 331 389 122 60 182 73 325 69 94 -3 135 -9 191 -27z"
       id="path20"
       style="fill:#878688;fill-opacity:1" />
    <path
       d="M6701 3895 c-278 -61 -489 -231 -587 -473 -59 -146 -57 -130 -62 -744 l-3 -568 95 0 96 0 0 251 0 251 70 -64 c140 -128 317 -197 532 -205 288 -12 493 60 669 236 157 158 229 328 229 547 0 128 -24 227 -86 354 -39 79 -62 109 -138 186 -127 127 -256 196 -434 230 -92 18 -296 17 -381 -1z m424 -152 c199 -72 341 -216 411 -418 24 -71 28 -94 27 -200 0 -102 -4 -132 -27 -202 -63 -195 -217 -349 -418 -420 -98 -35 -270 -43 -382 -18 -246 54 -451 259 -501 500 -73 349 142 692 490 779 43 11 97 15 190 12 113 -3 140 -7 210 -33z"
       id="path22"
       style="fill:#878688;fill-opacity:1" />
    <path
       d="M730 1627 c0 -537 -1 -579 -20 -650 -52 -207 -190 -305 -453 -324 l-87 -6 0 -145 0 -145 113 7 c203 13 364 56 486 130 88 54 177 155 222 252 74 157 72 137 76 832 l4 622 -171 0 -170 0 0 -573z"
       id="path24"
       style="fill:#878688;fill-opacity:1" />
    <path
       d="M7860 1295 l0 -905 160 0 160 0 0 468 c0 398 2 476 16 522 43 145 165 243 338 271 207 34 401 -111 436 -326 5 -33 10 -257 10 -498 l0 -438 158 3 157 3 0 500 c0 565 -2 588 -75 733 -115 229 -338 362 -609 362 -148 0 -270 -39 -378 -121 l-53 -40 0 186 0 185 -160 0 -160 0 0 -905z"
       id="path26"
       style="fill:#878688;fill-opacity:1" />
    <path
       d="M1840 1983 c-279 -48 -519 -231 -631 -479 -86 -190 -92 -434 -15 -624 96 -237 311 -423 566 -491 121 -32 321 -33 433 -1 304 86 522 301 599 590 29 109 28 287 -1 396 -81 304 -327 535 -641 601 -66 14 -249 19 -310 8z m296 -314 c161 -50 305 -205 343 -369 15 -64 13 -196 -3 -256 -59 -221 -268 -384 -493 -384 -147 0 -263 49 -369 154 -112 112 -162 241 -151 391 15 200 124 359 307 444 114 54 236 60 366 20z"
       id="path28"
       style="fill:#878688;fill-opacity:1" />
    <path
       d="M3365 1974 c-432 -96 -604 -431 -355 -690 52 -55 128 -106 200 -134 28 -11 137 -43 243 -71 299 -79 386 -120 422 -195 33 -71 3 -131 -92 -181 -200 -106 -502 -46 -543 108 l-11 39 -196 0 -196 0 7 -47 c17 -135 138 -281 290 -354 137 -65 217 -82 401 -83 137 0 173 3 250 23 214 55 378 172 447 317 30 64 33 77 33 169 0 119 -18 166 -91 245 -87 93 -218 157 -444 216 -341 90 -417 120 -446 175 -49 96 53 179 232 187 150 7 266 -43 303 -129 l16 -39 189 0 189 0 -5 48 c-16 160 -183 317 -408 382 -101 30 -332 37 -435 14z"
       id="path30"
       style="fill:#878688;fill-opacity:1" />
    <path
       d="M4960 1976 c-278 -59 -510 -254 -612 -515 -51 -132 -66 -333 -33 -466 72 -293 303 -525 605 -606 121 -33 309 -33 430 0 123 33 264 110 355 194 98 90 183 210 209 295 l7 22 -175 0 c-152 0 -176 -2 -184 -17 -22 -38 -129 -134 -181 -162 -156 -83 -344 -82 -496 4 -101 56 -209 183 -239 283 l-7 22 660 0 660 0 7 36 c12 67 -2 264 -26 339 -48 153 -149 302 -273 400 -77 62 -220 135 -312 160 -82 23 -309 29 -395 11z m341 -310 c83 -29 168 -85 219 -145 39 -45 91 -134 105 -178 l6 -23 -496 0 -496 0 7 23 c26 86 105 193 185 252 137 101 307 127 470 71z"
       id="path32"
       style="fill:#878688;fill-opacity:1" />
    <path
       d="M6705 1975 c-325 -72 -565 -304 -641 -622 -14 -58 -18 -155 -21 -651 l-4 -582 180 0 181 0 0 190 c0 105 2 190 5 190 3 0 29 -13 58 -29 184 -104 456 -136 688 -80 370 88 629 408 631 779 2 397 -267 722 -665 804 -93 20 -325 20 -412 1z m340 -290 c242 -62 397 -256 398 -500 1 -155 -45 -269 -152 -376 -103 -103 -220 -150 -378 -151 -151 -1 -273 45 -377 142 -107 101 -160 228 -159 385 2 244 153 436 393 499 73 19 201 20 275 1z"
       id="path34"
       style="fill:#878688;fill-opacity:1" />
  </g>
</svg>
