<?xml version="1.0" encoding="UTF-8" standalone="no"?>
<svg
   xmlns:dc="http://purl.org/dc/elements/1.1/"
   xmlns:cc="http://creativecommons.org/ns#"
   xmlns:rdf="http://www.w3.org/1999/02/22-rdf-syntax-ns#"
   xmlns:svg="http://www.w3.org/2000/svg"
   xmlns="http://www.w3.org/2000/svg"
   xmlns:sodipodi="http://sodipodi.sourceforge.net/DTD/sodipodi-0.dtd"
   xmlns:inkscape="http://www.inkscape.org/namespaces/inkscape"
   version="1.0"
   width="363.000000pt"
   height="102.000000pt"
   viewBox="0 0 363.000000 102.000000"
   preserveAspectRatio="xMidYMid meet"
   id="svg2"
   inkscape:version="0.91 r13725"
   sodipodi:docname="lebonbon.svg">
  <defs
     id="defs20" />
  <sodipodi:namedview
     pagecolor="#ffffff"
     bordercolor="#666666"
     borderopacity="1"
     objecttolerance="10"
     gridtolerance="10"
     guidetolerance="10"
     inkscape:pageopacity="0"
     inkscape:pageshadow="2"
     inkscape:window-width="1262"
     inkscape:window-height="722"
     id="namedview18"
     showgrid="false"
     inkscape:zoom="0.88815427"
     inkscape:cx="226.875"
     inkscape:cy="63.75"
     inkscape:window-x="20"
     inkscape:window-y="43"
     inkscape:window-maximized="0"
     inkscape:current-layer="svg2" />
  <metadata
     id="metadata4">
Created by potrace 1.13, written by Peter Selinger 2001-2015
<rdf:RDF>
  <cc:Work
     rdf:about="">
    <dc:format>image/svg+xml</dc:format>
    <dc:type
       rdf:resource="http://purl.org/dc/dcmitype/StillImage" />
    <dc:title></dc:title>
  </cc:Work>
</rdf:RDF>
</metadata>
  <g
     transform="translate(0.000000,102.000000) scale(0.100000,-0.100000)"
     fill="#000000"
     stroke="none"
     id="g6"
     style="fill:#878688;fill-opacity:1">
    <path
       d="M1025 1005 c-142 -36 -246 -149 -206 -224 17 -31 47 -26 82 14 22 25 49 40 96 55 36 11 67 20 70 20 18 0 -45 -257 -85 -351 -19 -43 -23 -47 -63 -52 -24 -3 -49 -13 -55 -22 -13 -18 -4 -76 16 -100 17 -21 63 -19 93 5 l25 20 65 -34 c157 -82 320 -45 358 82 18 60 -1 115 -57 169 l-44 43 40 52 c98 128 83 251 -36 309 -61 29 -210 36 -299 14z m204 -150 c47 -24 54 -76 20 -154 -20 -47 -21 -48 -65 -47 -27 1 -43 5 -40 12 2 5 11 48 21 95 24 124 19 118 64 94z m-23 -311 c50 -30 70 -51 79 -85 14 -55 -37 -64 -157 -28 l-68 20 20 40 c12 22 25 51 30 65 11 29 28 27 96 -12z"
       id="path8"
       style="fill:#878688;fill-opacity:1" />
    <path
       d="M173 991 c-54 -33 -79 -92 -107 -246 -14 -77 -35 -183 -46 -235 -21 -100 -25 -157 -12 -177 12 -19 61 -34 90 -27 36 8 102 47 126 73 25 28 33 27 51 -9 52 -100 217 -71 339 61 42 45 56 68 56 90 0 47 -24 45 -71 -6 -68 -73 -161 -112 -193 -80 -30 31 -20 52 34 70 64 21 105 61 120 114 16 62 -1 108 -48 128 -49 21 -92 10 -145 -38 -45 -39 -107 -144 -107 -181 0 -24 -75 -98 -100 -98 -11 0 -20 3 -20 6 0 3 14 60 31 127 18 72 51 166 80 229 52 114 62 173 33 202 -21 22 -72 20 -111 -3z"
       id="path10"
       style="fill:#878688;fill-opacity:1" />
    <path
       d="M2502 975 c-72 -64 -136 -214 -162 -379 -11 -63 -19 -86 -43 -113 -32 -37 -83 -68 -91 -55 -2 4 5 32 16 62 11 30 28 79 39 107 10 29 19 64 19 78 0 31 -32 65 -62 65 -22 0 -108 -46 -108 -58 -1 -4 -14 -22 -30 -41 l-29 -34 10 37 c6 20 9 51 7 69 -2 27 -8 33 -31 35 -53 6 -147 -86 -147 -145 0 -22 -25 -43 -52 -43 -10 0 -14 16 -13 59 0 68 -21 101 -65 101 -15 0 -33 7 -40 15 -16 19 -63 19 -98 1 -92 -49 -168 -213 -148 -321 9 -49 50 -93 93 -101 73 -14 163 38 204 117 14 29 25 38 42 37 12 -1 32 2 45 6 22 7 23 6 17 -27 -14 -73 55 -154 110 -129 19 9 23 21 28 88 4 45 14 90 25 108 18 31 66 65 76 55 3 -3 -5 -38 -19 -77 -44 -125 -31 -185 41 -185 47 0 83 17 149 72 l50 41 8 -32 c11 -43 25 -58 65 -75 76 -32 183 42 246 168 81 162 43 301 -69 255 -56 -24 -76 -98 -34 -124 18 -12 21 -21 17 -63 -6 -58 -50 -132 -76 -127 -15 3 -17 18 -16 121 l2 117 65 100 c85 130 104 178 85 217 -10 22 -21 29 -50 31 -30 3 -44 -3 -76 -33z m-798 -398 c0 -96 -10 -129 -45 -147 -68 -37 -64 113 5 205 15 19 30 35 34 35 4 0 7 -42 6 -93z"
       id="path12"
       style="fill:#878688;fill-opacity:1" />
    <path
       d="M2846 727 c-102 -58 -170 -261 -121 -357 30 -58 105 -75 181 -41 43 20 101 82 110 119 5 17 13 22 39 22 18 0 39 2 47 5 10 4 13 -8 13 -50 0 -45 4 -59 25 -79 28 -27 68 -41 87 -28 7 4 17 49 24 100 11 86 14 94 46 122 58 51 66 39 32 -50 -27 -70 -30 -143 -7 -166 43 -43 145 -5 234 88 75 79 91 118 56 137 -15 8 -25 1 -55 -36 -21 -25 -52 -57 -69 -70 -52 -38 -56 -15 -16 89 50 129 53 148 28 181 -38 48 -105 27 -173 -55 l-34 -41 10 50 c14 67 6 83 -38 83 -29 0 -44 -8 -79 -43 -24 -24 -49 -61 -56 -83 -16 -49 -28 -64 -51 -64 -16 0 -19 8 -19 58 0 72 -20 106 -60 100 -19 -3 -31 2 -39 14 -15 25 -67 23 -115 -5z m91 -102 c-7 -32 -7 -56 1 -81 12 -41 1 -74 -37 -108 -20 -18 -23 -19 -38 -3 -21 20 -20 90 0 139 15 35 64 98 77 98 4 0 3 -20 -3 -45z"
       id="path14"
       style="fill:#878688;fill-opacity:1" />
    <path
       d="M2455 168 c-16 -5 -217 -14 -445 -18 -644 -13 -863 -39 -907 -106 -23 -36 -7 -47 50 -35 119 27 276 31 727 20 416 -11 460 -11 519 4 102 27 156 80 131 128 -12 21 -29 23 -75 7z"
       id="path16"
       style="fill:#878688;fill-opacity:1" />
  </g>
</svg>
