<?xml version="1.0" encoding="UTF-8" standalone="no"?>
<svg
   xmlns:dc="http://purl.org/dc/elements/1.1/"
   xmlns:cc="http://creativecommons.org/ns#"
   xmlns:rdf="http://www.w3.org/1999/02/22-rdf-syntax-ns#"
   xmlns:svg="http://www.w3.org/2000/svg"
   xmlns="http://www.w3.org/2000/svg"
   xmlns:sodipodi="http://sodipodi.sourceforge.net/DTD/sodipodi-0.dtd"
   xmlns:inkscape="http://www.inkscape.org/namespaces/inkscape"
   version="1.0"
   width="585.000000pt"
   height="139.000000pt"
   viewBox="0 0 585.000000 139.000000"
   preserveAspectRatio="xMidYMid meet"
   id="svg2"
   inkscape:version="0.91 r13725"
   sodipodi:docname="skeppshult.svg">
  <defs
     id="defs30" />
  <sodipodi:namedview
     pagecolor="#ffffff"
     bordercolor="#666666"
     borderopacity="1"
     objecttolerance="10"
     gridtolerance="10"
     guidetolerance="10"
     inkscape:pageopacity="0"
     inkscape:pageshadow="2"
     inkscape:window-width="710"
     inkscape:window-height="480"
     id="namedview28"
     showgrid="false"
     inkscape:zoom="0.55111111"
     inkscape:cx="365.625"
     inkscape:cy="86.875"
     inkscape:window-x="20"
     inkscape:window-y="43"
     inkscape:window-maximized="0"
     inkscape:current-layer="svg2" />
  <metadata
     id="metadata4">
Created by potrace 1.13, written by Peter Selinger 2001-2015
<rdf:RDF>
  <cc:Work
     rdf:about="">
    <dc:format>image/svg+xml</dc:format>
    <dc:type
       rdf:resource="http://purl.org/dc/dcmitype/StillImage" />
    <dc:title></dc:title>
  </cc:Work>
</rdf:RDF>
</metadata>
  <g
     transform="translate(0.000000,139.000000) scale(0.100000,-0.100000)"
     fill="#000000"
     stroke="none"
     id="g6"
     style="fill:#878688;fill-opacity:1">
    <path
       d="M587 1040 c-117 -30 -177 -115 -148 -211 19 -63 54 -94 174 -152 120 -59 153 -86 163 -133 11 -59 -61 -114 -150 -114 -52 0 -129 24 -169 52 -16 11 -31 18 -33 15 -3 -3 0 -30 7 -61 l12 -55 51 -12 c28 -7 88 -13 133 -13 71 0 89 4 139 30 76 39 115 88 122 153 9 96 -24 135 -173 206 -119 56 -165 95 -165 139 0 89 137 120 248 55 18 -10 35 -19 38 -19 2 0 4 24 4 54 0 47 -3 54 -22 60 -41 12 -192 16 -231 6z"
       id="path8"
       style="fill:#878688;fill-opacity:1" />
    <path
       d="M3015 1041 c-116 -28 -177 -109 -156 -203 15 -66 44 -93 170 -157 124 -63 171 -104 171 -147 0 -101 -163 -137 -296 -65 -32 17 -59 29 -61 27 -2 -2 2 -28 10 -57 12 -50 16 -55 53 -68 21 -7 80 -14 129 -14 73 -1 100 4 142 22 139 61 182 207 86 291 -20 18 -82 54 -139 81 -144 69 -182 121 -134 181 41 53 144 56 228 7 18 -10 35 -19 38 -19 2 0 4 24 4 54 l0 54 -50 11 c-56 12 -149 13 -195 2z"
       id="path10"
       style="fill:#878688;fill-opacity:1" />
    <path
       d="M1627 1033 l-177 -3 17 -27 c16 -24 18 -56 18 -293 0 -263 -5 -320 -27 -320 -27 0 -84 59 -188 195 -68 89 -108 150 -104 158 4 6 54 72 111 144 57 73 103 135 103 138 0 3 -39 5 -87 5 -68 0 -84 -3 -75 -12 25 -25 10 -60 -78 -177 -49 -67 -90 -124 -90 -128 0 -3 52 -76 116 -160 86 -116 124 -158 150 -169 27 -11 86 -14 291 -12 l256 3 18 50 c25 72 24 77 -15 54 -56 -33 -96 -40 -188 -33 l-88 7 0 118 0 119 63 0 c40 0 70 -5 85 -16 22 -15 22 -15 22 40 l0 55 -85 -6 -85 -6 0 95 c0 110 -1 108 89 108 36 0 70 -7 94 -19 l37 -19 0 59 c0 32 -1 58 -2 57 -2 -1 -83 -4 -181 -5z"
       id="path12"
       style="fill:#878688;fill-opacity:1" />
    <path
       d="M4950 995 c-6 -22 -14 -48 -16 -57 -5 -16 -2 -16 38 2 28 13 65 20 106 20 l62 0 0 -269 c0 -256 -1 -269 -21 -295 l-20 -26 96 0 96 0 -23 31 c-22 30 -23 38 -26 296 l-3 265 75 -4 c52 -2 80 -8 93 -20 18 -17 19 -15 34 40 l16 57 -248 0 -247 0 -12 -40z"
       id="path14"
       style="fill:#878688;fill-opacity:1" />
    <path
       d="M896 1022 c30 -20 34 -55 34 -325 0 -262 -1 -275 -21 -301 l-20 -26 95 0 c95 0 96 0 77 19 -28 28 -33 93 -29 356 3 201 5 234 21 258 l17 27 -92 0 c-51 0 -88 -4 -82 -8z"
       id="path16"
       style="fill:#878688;fill-opacity:1" />
    <path
       d="M1914 1014 c9 -8 18 -25 21 -37 3 -12 5 -144 3 -294 -3 -250 -4 -273 -22 -292 l-19 -21 97 0 97 0 -23 31 c-23 30 -23 36 -23 292 l0 262 67 0 c81 0 116 -22 136 -84 13 -38 12 -45 -10 -89 -22 -45 -52 -67 -133 -99 -33 -13 85 -16 128 -3 141 42 185 221 75 303 -54 40 -92 47 -255 47 -140 0 -153 -1 -139 -16z"
       id="path18"
       style="fill:#878688;fill-opacity:1" />
    <path
       d="M2374 1008 c14 -19 16 -65 16 -301 0 -274 -4 -309 -34 -329 -6 -4 35 -8 91 -8 l102 0 -25 25 -24 24 2 268 3 268 34 3 c118 11 193 -65 161 -162 -14 -45 -69 -93 -115 -102 -60 -11 -50 -24 18 -24 51 0 76 6 118 28 70 37 99 84 99 166 0 56 -2 61 -43 101 -56 56 -92 65 -270 65 l-148 0 15 -22z"
       id="path20"
       style="fill:#878688;fill-opacity:1" />
    <path
       d="M3326 1009 c18 -19 19 -42 22 -291 3 -250 2 -273 -16 -309 l-19 -39 90 0 90 0 -19 21 c-16 18 -19 40 -22 160 l-4 139 181 0 181 0 0 -140 c0 -127 -2 -142 -20 -160 l-20 -20 96 0 c87 0 94 1 80 16 -9 8 -18 25 -21 37 -3 12 -5 147 -3 300 3 262 4 279 22 293 18 12 9 14 -77 14 l-97 0 20 -20 c18 -18 20 -33 20 -135 l0 -115 -181 0 -181 0 4 114 c2 95 6 117 22 135 l19 21 -93 0 -93 0 19 -21z"
       id="path22"
       style="fill:#878688;fill-opacity:1" />
    <path
       d="M3996 1009 c17 -19 19 -43 24 -268 5 -264 8 -278 62 -328 75 -70 233 -79 323 -17 44 30 45 30 45 -1 0 -24 2 -25 75 -25 74 0 75 0 56 19 -30 30 -33 64 -29 342 3 236 5 259 22 278 l19 21 -93 0 -93 0 19 -21 c17 -19 19 -41 22 -248 2 -211 1 -228 -17 -258 -40 -64 -151 -93 -225 -58 -19 9 -43 34 -57 58 -23 41 -24 48 -24 263 0 204 2 224 19 243 l19 21 -93 0 -93 0 19 -21z"
       id="path24"
       style="fill:#878688;fill-opacity:1" />
    <path
       d="M4650 1010 c20 -20 21 -30 18 -316 -3 -279 -4 -296 -22 -310 -17 -12 6 -14 190 -14 l210 0 19 52 c10 29 21 59 23 67 4 11 -4 9 -29 -6 -55 -34 -110 -44 -199 -37 l-80 7 0 266 c0 225 2 270 16 289 l15 22 -90 0 -91 0 20 -20z"
       id="path26"
       style="fill:#878688;fill-opacity:1" />
  </g>
</svg>
